<?xml version="1.0" encoding="UTF-8" standalone="no"?>
<!-- Created with Inkscape (http://www.inkscape.org/) -->

<svg
   xmlns:dc="http://purl.org/dc/elements/1.1/"
   xmlns:cc="http://creativecommons.org/ns#"
   xmlns:rdf="http://www.w3.org/1999/02/22-rdf-syntax-ns#"
   xmlns:svg="http://www.w3.org/2000/svg"
   xmlns="http://www.w3.org/2000/svg"
   xmlns:sodipodi="http://sodipodi.sourceforge.net/DTD/sodipodi-0.dtd"
   xmlns:inkscape="http://www.inkscape.org/namespaces/inkscape"
   id="svg2"
   version="1.1"
   inkscape:version="0.47 r22583"
   width="128"
   height="128"
   xml:space="preserve"
   sodipodi:docname="dell-dvd.svg"><metadata
     id="metadata8"><rdf:RDF><cc:Work
         rdf:about=""><dc:format>image/svg+xml</dc:format><dc:type
           rdf:resource="http://purl.org/dc/dcmitype/StillImage" /></cc:Work></rdf:RDF></metadata><defs
     id="defs6"><inkscape:perspective
       sodipodi:type="inkscape:persp3d"
       inkscape:vp_x="0 : 0.5 : 1"
       inkscape:vp_y="0 : 1000 : 0"
       inkscape:vp_z="1 : 0.5 : 1"
       inkscape:persp3d-origin="0.5 : 0.33333333 : 1"
       id="perspective10" /><clipPath
       clipPathUnits="userSpaceOnUse"
       id="clipPath20"><path
         d="M 0,4319.98 0,0 l 4320,0 0,4319.98 -4320,0 z"
         id="path22" /></clipPath></defs><sodipodi:namedview
     pagecolor="#ffffff"
     bordercolor="#666666"
     borderopacity="1"
     objecttolerance="10"
     gridtolerance="10"
     guidetolerance="10"
     inkscape:pageopacity="0"
     inkscape:pageshadow="2"
     inkscape:window-width="1440"
     inkscape:window-height="848"
     id="namedview4"
     showgrid="false"
     inkscape:zoom="1.9966906"
     inkscape:cx="179.25842"
     inkscape:cy="-9.8044219"
     inkscape:window-x="0"
     inkscape:window-y="24"
     inkscape:window-maximized="1"
     inkscape:current-layer="g12" /><g
     id="g12"
     inkscape:groupmode="layer"
     inkscape:label="ink_ext_XXXXXX"
     transform="matrix(1.25,0,0,-1.25,-133.90393,339.26131)"><g
       id="g14"
       transform="matrix(0.0224282,0,0,0.0224282,109.92314,171.80905)"><g
         id="g16"><g
           id="g18"
           clip-path="url(#clipPath20)"><path
             d="m 2160.02,4086.43 c -531.91,0 -1013.48,-215.64 -1362.153,-564.3 l 0,0 C 449.199,3173.48 233.555,2691.89 233.555,2160 l 0,0 c 0,-531.87 215.644,-1013.45 564.312,-1362.121 l 0,0 C 1146.54,449.262 1628.11,233.641 2160.02,233.641 l 0,0 c 531.89,0 1013.45,215.621 1362.16,564.238 l 0,0 C 3870.85,1146.55 4086.52,1628.13 4086.52,2160 l 0,0 c 0,531.89 -215.67,1013.48 -564.34,1362.13 l 0,0 c -348.71,348.66 -830.27,564.3 -1362.16,564.3 l 0,0 m 1519.8,-406.6 0,0 m -1519.8,640.15 C 3352.77,4319.98 4320,3352.81 4320,2160 l 0,0 C 4320,967.309 3352.77,0 2160.02,0 l 0,0 C 967.262,0 0,967.309 0,2160 l 0,0 c 0,1192.81 967.262,2159.98 2160.02,2159.98 l 0,0 m -1519.821,-640.15 0,0"
             style="fill:#0f85cb;fill-opacity:1;fill-rule:nonzero;stroke:none"
             id="path24" /><path
             d="m 1138.07,2176.97 c 0,126.43 -83.4,197.65 -201.39,197.65 l -72.301,0 0,-395.24 70.387,0 c 109.574,0 203.304,59.92 203.304,197.59 z m 1287.9,-141.79 -533.32,-419.49 -487.67,383.36 c -70.24,-168.87 -239.67,-286.57 -435.894,-286.57 l -416.738,0 0,928.98 416.695,0 c 219.007,0 376.497,-138.46 435.667,-286.87 l 487.94,383.47 180.79,-142.17 -446.81,-351.35 85.61,-67.26 446.82,351.29 180.8,-142.09 -446.84,-351.34 85.7,-67.36 447.25,351.26 0,322.42 324.32,0 0,-657.26 322.83,0 0,-272.01 -647.15,0 0,322.99 z m 1057.83,-51.19 322.72,0 0,-271.8 -647.17,0 0,929.27 324.45,0 0,-657.47"
             style="fill:#0f85cb;fill-opacity:1;fill-rule:nonzero;stroke:none"
             id="path26" /></g></g></g></g></svg>